<svg width="114" height="27" viewBox="0 0 114 27" fill="none" xmlns="http://www.w3.org/2000/svg">
<g clip-path="url(#clip0_283_3)">
<rect x="14" width="15" height="27" fill="#160933"/>
<rect width="15" height="27" fill="#4D9971"/>
<path d="M4.196 26V11.744C4.196 9.504 4.692 7.584 5.684 5.984C6.708 4.352 8.068 3.104 9.764 2.24C11.46 1.344 13.332 0.896 15.38 0.896C17.46 0.896 19.332 1.344 20.996 2.24C22.692 3.104 24.036 4.352 25.028 5.984C26.052 7.584 26.564 9.504 26.564 11.744V26H23.204V11.888C23.204 10.192 22.836 8.752 22.1 7.568C21.364 6.352 20.388 5.424 19.172 4.784C17.988 4.144 16.708 3.824 15.332 3.824C13.988 3.824 12.724 4.144 11.54 4.784C10.356 5.392 9.396 6.304 8.66 7.52C7.924 8.704 7.556 10.16 7.556 11.888V26H4.196Z" fill="white"/>
<path d="M44.4256 26.624C41.9616 26.624 39.8496 26.048 38.0896 24.896C36.3296 23.744 34.9856 22.208 34.0576 20.288C33.1296 18.336 32.6656 16.16 32.6656 13.76C32.6656 11.328 33.1776 9.152 34.2016 7.232C35.2256 5.28 36.6816 3.744 38.5696 2.624C40.4896 1.504 42.7616 0.943999 45.3856 0.943999C47.9136 0.943999 50.0896 1.504 51.9136 2.624C53.7696 3.744 55.1936 5.248 56.1856 7.136C57.2096 9.024 57.7216 11.152 57.7216 13.52V26H54.4096V20.528H54.2656C53.8176 21.488 53.1456 22.448 52.2496 23.408C51.3536 24.336 50.2496 25.104 48.9376 25.712C47.6576 26.32 46.1536 26.624 44.4256 26.624ZM45.1456 23.744C46.9376 23.744 48.5216 23.312 49.8976 22.448C51.2736 21.552 52.3456 20.352 53.1136 18.848C53.9136 17.312 54.3136 15.584 54.3136 13.664C54.3136 11.776 53.9456 10.096 53.2096 8.624C52.4736 7.152 51.4336 5.984 50.0896 5.12C48.7456 4.256 47.1456 3.824 45.2896 3.824C43.3696 3.824 41.7216 4.272 40.3456 5.168C38.9696 6.032 37.9136 7.232 37.1776 8.768C36.4416 10.272 36.0736 11.984 36.0736 13.904C36.0736 15.696 36.4256 17.344 37.1296 18.848C37.8336 20.352 38.8576 21.552 40.2016 22.448C41.5776 23.312 43.2256 23.744 45.1456 23.744ZM73.3876 26.576C72.4276 26.576 71.5796 26.304 70.8436 25.76C70.1396 25.184 69.5636 24.352 69.1156 23.264L60.7156 1.568H64.4596L72.1876 22.112C72.3796 22.528 72.5716 22.832 72.7636 23.024C72.9556 23.216 73.1796 23.312 73.4356 23.312C73.6596 23.312 73.8516 23.216 74.0116 23.024C74.2036 22.832 74.3796 22.528 74.5396 22.112L82.3636 1.568H86.0596L77.5636 23.312C77.1476 24.4 76.5716 25.216 75.8356 25.76C75.1316 26.304 74.3156 26.576 73.3876 26.576ZM100.488 26.624C98.0241 26.624 95.9121 26.048 94.1521 24.896C92.3921 23.744 91.0481 22.208 90.1201 20.288C89.1921 18.336 88.7281 16.16 88.7281 13.76C88.7281 11.328 89.2401 9.152 90.2641 7.232C91.2881 5.28 92.7441 3.744 94.6321 2.624C96.5521 1.504 98.8241 0.943999 101.448 0.943999C103.976 0.943999 106.152 1.504 107.976 2.624C109.832 3.744 111.256 5.248 112.248 7.136C113.272 9.024 113.784 11.152 113.784 13.52V26H110.472V20.528H110.328C109.88 21.488 109.208 22.448 108.312 23.408C107.416 24.336 106.312 25.104 105 25.712C103.72 26.32 102.216 26.624 100.488 26.624ZM101.208 23.744C103 23.744 104.584 23.312 105.96 22.448C107.336 21.552 108.408 20.352 109.176 18.848C109.976 17.312 110.376 15.584 110.376 13.664C110.376 11.776 110.008 10.096 109.272 8.624C108.536 7.152 107.496 5.984 106.152 5.12C104.808 4.256 103.208 3.824 101.352 3.824C99.4321 3.824 97.7841 4.272 96.4081 5.168C95.0321 6.032 93.9761 7.232 93.2401 8.768C92.5041 10.272 92.1361 11.984 92.1361 13.904C92.1361 15.696 92.4881 17.344 93.1921 18.848C93.8961 20.352 94.9201 21.552 96.2641 22.448C97.6401 23.312 99.2881 23.744 101.208 23.744Z" fill="black"/>
</g>
<defs>
<clipPath id="clip0_283_3">
<rect width="114" height="27" fill="white"/>
</clipPath>
</defs>
</svg>
