<svg width="60" height="60" viewBox="0 0 60 60" fill="none" xmlns="http://www.w3.org/2000/svg">
<g clip-path="url(#clip0_376_33)">
<path d="M54.1184 6.30584C54.0984 6.20966 54.0515 6.12118 53.9829 6.05081C53.9144 5.98043 53.8273 5.93108 53.7317 5.90857C47.359 4.34998 32.6379 9.90349 24.6539 17.8816C23.231 19.2929 21.9336 20.8252 20.7762 22.4613C18.3152 22.2386 15.8543 22.4261 13.759 23.3402C7.8422 25.9418 6.12071 32.7363 5.64024 35.6531C5.61421 35.8129 5.62533 35.9766 5.67274 36.1314C5.72015 36.2863 5.80257 36.4281 5.91362 36.546C6.02468 36.6638 6.16137 36.7545 6.31312 36.811C6.46487 36.8675 6.62759 36.8884 6.78868 36.8719L16.2891 35.8289C16.2956 36.5455 16.3386 37.2612 16.418 37.9734C16.4676 38.4657 16.6872 38.9252 17.0391 39.273L20.7176 42.9515C21.0657 43.3037 21.5257 43.5233 22.0184 43.5726C22.7263 43.6516 23.4377 43.6946 24.15 43.7015L23.1082 53.1937C23.0919 53.3546 23.1129 53.5171 23.1694 53.6686C23.226 53.8201 23.3166 53.9565 23.4343 54.0674C23.552 54.1783 23.6936 54.2607 23.8482 54.3081C24.0027 54.3555 24.1662 54.3668 24.3258 54.341C27.2438 53.8722 34.0524 52.1508 36.6387 46.2351C37.5527 44.1375 37.7402 41.6894 37.5293 39.2402C39.1702 38.0839 40.7069 36.7864 42.1219 35.3625C50.1352 27.3937 55.6535 12.9961 54.1184 6.30584ZM34.9992 25.0394C34.2993 24.3397 33.8226 23.4481 33.6294 22.4774C33.4363 21.5067 33.5353 20.5005 33.914 19.5861C34.2927 18.6717 34.9341 17.8901 35.757 17.3402C36.5799 16.7903 37.5474 16.4968 38.5371 16.4968C39.5268 16.4968 40.4943 16.7903 41.3173 17.3402C42.1402 17.8901 42.7815 18.6717 43.1602 19.5861C43.5389 20.5005 43.638 21.5067 43.4448 22.4774C43.2516 23.4481 42.7749 24.3397 42.075 25.0394C41.6108 25.5047 41.0593 25.8738 40.4522 26.1256C39.8452 26.3774 39.1944 26.5071 38.5371 26.5071C37.8799 26.5071 37.2291 26.3774 36.622 26.1256C36.0149 25.8738 35.4635 25.5047 34.9992 25.0394Z" stroke="black" stroke-width="2" stroke-linecap="round" stroke-linejoin="round"/>
<path d="M12.8484 41.25C11.6802 41.3934 10.5934 41.923 9.76055 42.7547C7.6957 44.8266 7.5 52.5 7.5 52.5C7.5 52.5 15.1781 52.3043 17.2441 50.2371C18.0792 49.4056 18.6097 48.3169 18.75 47.1469" stroke="#4D9971" stroke-width="2" stroke-linecap="round" stroke-linejoin="round"/>
</g>
<defs>
<clipPath id="clip0_376_33">
<rect width="60" height="60" fill="white"/>
</clipPath>
</defs>
</svg>
