<svg width="724" height="330" viewBox="0 0 724 330" fill="none" xmlns="http://www.w3.org/2000/svg">
<path d="M123.022 5.76042C114.249 -1.43349 101.846 -1.43349 93.0733 5.76042C62.8218 30.8363 26.4192 80.0632 30.7552 137.203C31.8644 151.077 35.1921 164.335 39.9315 176.975C40.234 177.9 40.6374 178.722 41.1416 179.647C73.0065 240.385 143.089 240.385 174.853 179.647C175.257 178.825 175.66 177.9 176.063 176.975C180.903 164.437 184.231 151.077 185.24 137.203C189.777 79.9604 153.375 30.8363 123.022 5.76042Z" fill="#98BD84"/>
<path d="M108.098 323.834V104.934" stroke="#135677" stroke-width="8" stroke-miterlimit="10" stroke-linecap="round" stroke-linejoin="round"/>
<path d="M10.285 326.814C10.285 294.544 35.9988 268.338 67.662 268.338C99.3253 268.338 125.039 294.544 125.039 326.814" fill="#98BD84"/>
<path d="M129.073 74.6164C125.442 78.83 124.535 84.4823 125.947 89.5181C130.585 89.7236 135.224 87.8738 138.451 84.0713C142.081 79.8577 142.988 74.2053 141.577 69.1696C137.039 68.9641 132.4 70.8139 129.073 74.6164Z" stroke="#135677" stroke-width="6" stroke-miterlimit="10" stroke-linecap="round" stroke-linejoin="round"/>
<path d="M101.04 43.3742C100.838 48.821 103.46 53.6512 107.594 56.6316C111.224 53.8568 113.644 49.6432 113.846 44.7102C114.048 39.2634 111.426 34.4332 107.291 31.4529C103.661 34.1249 101.241 38.4413 101.04 43.3742Z" stroke="#135677" stroke-width="6" stroke-miterlimit="10" stroke-linecap="round" stroke-linejoin="round"/>
<path d="M70.8888 90.8541C72.3006 96.3009 76.2333 100.309 81.1744 101.953C83.897 98.1508 85.107 93.2178 83.7961 88.2848C82.3844 82.838 78.4517 78.83 73.5106 77.1857C70.6872 80.9882 69.578 86.0239 70.8888 90.8541Z" stroke="#135677" stroke-width="6" stroke-miterlimit="10" stroke-linecap="round" stroke-linejoin="round"/>
<path d="M77.1408 159.402C77.1408 159.402 86.418 184.786 108.098 186.43" stroke="#135677" stroke-width="8" stroke-miterlimit="10" stroke-linecap="round" stroke-linejoin="round"/>
<path d="M107.997 160.018C107.997 160.018 127.661 151.386 129.274 130.318" stroke="#135677" stroke-width="8" stroke-miterlimit="10" stroke-linecap="round" stroke-linejoin="round"/>
<path d="M177.072 322.087C171.929 307.493 158.215 297.114 142.081 297.114C125.947 297.114 112.333 307.493 107.09 322.087H177.072Z" fill="#98BD84"/>
<path d="M67.7629 290.947V322.806" stroke="#135677" stroke-width="8" stroke-miterlimit="10" stroke-linecap="round" stroke-linejoin="round"/>
<path d="M87.628 303.28L67.7629 322.806" stroke="#135677" stroke-width="8" stroke-miterlimit="10" stroke-linecap="round" stroke-linejoin="round"/>
<path d="M138.652 169.37C135.022 172.659 133.509 177.592 134.215 182.217C138.249 182.936 142.585 181.806 145.913 178.722C149.543 175.434 151.055 170.501 150.349 165.876C146.215 165.26 141.879 166.39 138.652 169.37Z" stroke="#135677" stroke-width="6" stroke-miterlimit="10" stroke-linecap="round" stroke-linejoin="round"/>
<path d="M640.271 60.7424V322.806" stroke="#135677" stroke-width="6" stroke-miterlimit="10" stroke-linecap="round" stroke-linejoin="round"/>
<path d="M594.591 14.5986L640.271 61.0507" stroke="#135677" stroke-width="6" stroke-miterlimit="10" stroke-linecap="round" stroke-linejoin="round"/>
<path d="M624.596 60.5574L589.302 24.5858L575.326 38.8298L610.621 74.8003L624.596 60.5574Z" fill="#F89A78"/>
<path d="M624.596 60.5574L589.302 24.5858L575.326 38.8298L610.621 74.8003L624.596 60.5574Z" stroke="#135677" stroke-width="6" stroke-miterlimit="10" stroke-linecap="round" stroke-linejoin="round"/>
<path d="M653.077 110.072V322.806" stroke="#135677" stroke-width="6" stroke-miterlimit="10" stroke-linecap="round" stroke-linejoin="round"/>
<path d="M698.656 63.9282L653.077 110.38" stroke="#135677" stroke-width="6" stroke-miterlimit="10" stroke-linecap="round" stroke-linejoin="round"/>
<path d="M682.665 124.06L717.96 88.0885L703.984 73.8456L668.69 109.817L682.665 124.06Z" fill="#F89A78"/>
<path d="M682.665 124.06L717.96 88.0885L703.984 73.8456L668.69 109.817L682.665 124.06Z" stroke="#135677" stroke-width="6" stroke-miterlimit="10" stroke-linecap="round" stroke-linejoin="round"/>
<path d="M184.134 325.581H4.13446" stroke="#135677" stroke-width="8" stroke-miterlimit="10" stroke-linecap="round" stroke-linejoin="round"/>
<path d="M710.658 325.581H610.658" stroke="#135677" stroke-width="8" stroke-miterlimit="10" stroke-linecap="round" stroke-linejoin="round"/>
<path d="M596.836 325.581H196.836" stroke="#135677" stroke-width="8" stroke-miterlimit="10" stroke-linecap="round" stroke-linejoin="round"/>
<rect x="264" y="116" width="261" height="140" rx="7" stroke="#135677" stroke-width="6"/>
<line x1="395" y1="258" x2="395" y2="308" stroke="#135677" stroke-width="6"/>
<line x1="302" y1="307" x2="494" y2="307" stroke="#135677" stroke-width="6"/>
<path d="M317.576 196.545V192L354.167 173.364V180.636L326.099 194.159L326.326 193.705V194.841L326.099 194.386L354.167 207.909V215.182L317.576 196.545ZM411.447 156.091L392.697 225.75H386.56L405.31 156.091H411.447ZM480.417 196.545L443.826 215.182V207.909L471.894 194.386L471.667 194.841V193.705L471.894 194.159L443.826 180.636V173.364L480.417 192V196.545Z" fill="#98BD84"/>
</svg>
